<?xml version="1.0" encoding="UTF-8"?>
<svg enable-background="new 0 0 511.998 511.998" version="1.1" viewBox="0 0 511.998 511.998" xml:space="preserve" xmlns="http://www.w3.org/2000/svg">
<polygon points="256 27.194 39.674 127.04 256 226.88 472.32 127.04" fill="#F0DCBE"/>
<path d="m467.49 387.19l-211.49 97.611v-257.93l216.33-99.842v252.6c-1e-3 3.245-1.888 6.194-4.835 7.555z" fill="#EBD2AF"/>
<path d="m44.507 387.19l211.49 97.611v-257.93l-216.32-99.842v252.6c0 3.246 1.887 6.195 4.833 7.556z" fill="#D2B493"/>
<path d="m472.32 127.04l-216.33 99.842 38.661 115.98c1.568 4.704 6.878 7.001 11.38 4.924l201.12-92.826c3.849-1.777 5.747-6.164 4.406-10.186l-39.244-117.74z" fill="#F0DCBE"/>
<path d="m39.674 127.04l216.33 99.842-38.662 115.98c-1.568 4.704-6.878 7.001-11.38 4.924l-201.12-92.827c-3.849-1.777-5.747-6.164-4.406-10.186l39.245-117.74z" fill="#EBD2AF"/>
<polygon points="472.32 127.04 256 27.194 256 226.88" fill="#D2B493"/>
</svg>
